<svg width="14" height="16" fill="none" xmlns="http://www.w3.org/2000/svg"><mask id="a" fill="#fff"><path fill-rule="evenodd" clip-rule="evenodd" d="M8.647 14.4c0 .88-.741 1.6-1.647 1.6s-1.647-.72-1.647-1.6h3.294zM7 3.512l-.787.181C4.698 4.042 3.647 5.336 3.647 6.8v4.8h8.317l.389-.4.412.4L14 12.8v.8H0v-.8l1.235-1.2.412-.4V6.8c0-2.456 1.754-4.512 4.118-5.056V1.2C5.765.536 6.316 0 7 0s1.235.536 1.235 1.2v.544c2.364.544 4.118 2.6 4.118 5.056v4.4h-2V6.8c0-1.464-1.05-2.758-2.566-3.107L7 3.512z"/></mask><path d="M8.647 14.4h2v-2h-2v2zm-3.294 0v-2h-2v2h2zm.86-10.707l.449 1.95-.449-1.95zM7 3.512l.449-1.95L7 1.46l-.449.103L7 3.512zM3.647 11.6h-2v2h2v-2zm8.317 0v2h.846l.589-.606-1.435-1.394zm.8 0l-1.393 1.435 1.394-1.435zM14 12.8h2v-.846l-.606-.589L14 12.8zm0 .8v2h2v-2h-2zm-14 0h-2v2h2v-2zm0-.8l-1.394-1.435-.606.59v.845h2zm1.235-1.2l-1.393-1.435L1.235 11.6zm.412-.4l1.394 1.435.606-.59V11.2h-2zm4.118-9.456l.448 1.949 1.552-.357V1.744h-2zm2.47 0h-2v1.592l1.552.357.448-1.949zm2.118 9.456h-2v2h2v-2zM7.787 3.693l-.449 1.95.449-1.95zM7 18c1.955 0 3.647-1.561 3.647-3.6h-4c0-.279.21-.4.353-.4v4zm-3.647-3.6C3.353 16.439 5.045 18 7 18v-4c.144 0 .353.121.353.4h-4zm3.294-2H5.353v4h1.294v-4zm.353 0h-.353v4H7v-4zm.353 0H7v4h.353v-4zm1.294 0H7.353v4h1.294v-4zM6.662 5.642l.787-.181-.898-3.898-.786.181.897 3.898zM5.647 6.8c0-.48.355-1.006 1.015-1.158l-.897-3.898C3.394 2.29 1.647 4.352 1.647 6.8h4zm0 4.4V6.8h-4v4.4h4zm0 .4v-.4h-4v.4h4zm6.317-2H3.647v4h8.317v-4zm-1.046.206l-.388.4 2.869 2.788.389-.4-2.87-2.788zm3.24.36l-.412-.4-2.787 2.869.412.4 2.787-2.87zm1.236 1.2l-1.236-1.2-2.787 2.869 1.235 1.2 2.788-2.87zM16 13.6v-.8h-4v.8h4zm-2.777 2H14v-4h-.777v4zM12 15.6h1.223v-4H12v4zm-.047 0H12v-4h-.047v4zm-9.906 0h9.906v-4H2.047v4zM2 15.6h.047v-4H2v4zm-1.223 0H2v-4H.777v4zM0 15.6h.777v-4H0v4zm-2-2.8v.8h4v-.8h-4zm1.842-2.635l-1.236 1.2 2.788 2.87 1.235-1.2-2.787-2.87zm.411-.4l-.411.4 2.787 2.87.412-.4-2.788-2.87zM-.353 6.8v4.4h4V6.8h-4zm5.67-7.005C2.104.535-.354 3.352-.354 6.8h4c0-1.464 1.05-2.758 2.566-3.107L5.316-.205zM3.764 1.2v.544h4V1.2h-4zM7-2C5.267-2 3.765-.623 3.765 1.2h4c0 .495-.399.8-.765.8v-4zm3.235 3.2C10.235-.623 8.733-2 7-2v4a.784.784 0 01-.765-.8h4zm0 .544V1.2h-4v.544h4zM14.353 6.8c0-3.448-2.458-6.266-5.67-7.005l-.896 3.898c1.515.349 2.566 1.643 2.566 3.107h4zm0 4.4V6.8h-4v4.4h4zm-4 2h2v-4h-2v4zm-2-6.4v4.4h4V6.8h-4zM7.338 5.642c.66.152 1.015.678 1.015 1.158h4c0-2.448-1.746-4.51-4.118-5.056l-.897 3.898zm-.787-.181l.787.181.897-3.898-.786-.181L6.55 5.46z" fill="#3E4056" mask="url(#a)"/></svg>