<svg width="4" height="16" fill="none" xmlns="http://www.w3.org/2000/svg"><mask id="a" fill="#fff"><path fill-rule="evenodd" clip-rule="evenodd" d="M4 2a2 2 0 11-4 0 2 2 0 014 0zm0 6a2 2 0 11-4 0 2 2 0 014 0zm-2 8a2 2 0 100-4 2 2 0 000 4z"/></mask><path d="M2 6a4 4 0 004-4H2v4zm-4-4a4 4 0 004 4V2h-4zm4-4a4 4 0 00-4 4h4v-4zm4 4a4 4 0 00-4-4v4h4zM2 12a4 4 0 004-4H2v4zm-4-4a4 4 0 004 4V8h-4zm4-4a4 4 0 00-4 4h4V4zm4 4a4 4 0 00-4-4v4h4zm-4 6v4a4 4 0 004-4H2zm0 0h4a4 4 0 00-4-4v4zm0 0v-4a4 4 0 00-4 4h4zm0 0h-4a4 4 0 004 4v-4z" fill="#3E4056" mask="url(#a)"/></svg>