<svg width="20" height="20" fill="none" xmlns="http://www.w3.org/2000/svg"><path fill-rule="evenodd" clip-rule="evenodd" d="M8.588 4.34a5.001 5.001 0 017.071 7.071l-4.247 4.248a5.002 5.002 0 01-7.069-.002 5.001 5.001 0 01-.002-7.069l4.247-4.247zm1.414 1.415l-4.247 4.247a3 3 0 004.243 4.243l4.247-4.247a3 3 0 00-4.243-4.243zM7.879 5.05L5.05 7.88l1.414 1.414 2.829-2.829L7.879 5.05zm5.657 5.657l-2.829 2.829 1.414 1.414 2.829-2.829-1.414-1.414zm-2.822-2.835a.993.993 0 011.407.007 1 1 0 01.007 1.407l-2.842 2.842a.993.993 0 01-1.407-.007 1 1 0 01-.007-1.407l2.842-2.842z" fill="#3E4056"/><mask id="a" maskUnits="userSpaceOnUse" x="2" y="2" width="16" height="16"><path fill-rule="evenodd" clip-rule="evenodd" d="M8.588 4.34a5.001 5.001 0 017.071 7.071l-4.247 4.248a5.002 5.002 0 01-7.069-.002 5.001 5.001 0 01-.002-7.069l4.247-4.247zm1.414 1.415l-4.247 4.247a3 3 0 004.243 4.243l4.247-4.247a3 3 0 00-4.243-4.243zM7.879 5.05L5.05 7.88l1.414 1.414 2.829-2.829L7.879 5.05zm5.657 5.657l-2.829 2.829 1.414 1.414 2.829-2.829-1.414-1.414zm-2.822-2.835a.993.993 0 011.407.007 1 1 0 01.007 1.407l-2.842 2.842a.993.993 0 01-1.407-.007 1 1 0 01-.007-1.407l2.842-2.842z" fill="#fff"/></mask><g mask="url(#a)"><path fill="#3E4056" d="M2 2h16v16H2z"/></g><path fill-rule="evenodd" clip-rule="evenodd" d="M5.05 7.879a.998.998 0 011.415 0 .998.998 0 010 1.414.998.998 0 01-1.415 0 .998.998 0 010-1.414zm5.657 5.657a.998.998 0 011.414 0 .997.997 0 010 1.414.997.997 0 01-1.414 0 .998.998 0 010-1.414zm2.829-2.829a.998.998 0 011.414 0 .998.998 0 010 1.414.998.998 0 01-1.414 0 .997.997 0 010-1.414zM7.879 5.05a.998.998 0 011.414 0 .998.998 0 010 1.414.998.998 0 01-1.414 0 .998.998 0 010-1.414z" fill="#3E4056"/><mask id="b" maskUnits="userSpaceOnUse" x="4" y="4" width="12" height="12"><path fill-rule="evenodd" clip-rule="evenodd" d="M5.05 7.879a.998.998 0 011.415 0 .998.998 0 010 1.414.998.998 0 01-1.415 0 .998.998 0 010-1.414zm5.657 5.657a.998.998 0 011.414 0 .997.997 0 010 1.414.997.997 0 01-1.414 0 .998.998 0 010-1.414zm2.829-2.829a.998.998 0 011.414 0 .998.998 0 010 1.414.998.998 0 01-1.414 0 .997.997 0 010-1.414zM7.879 5.05a.998.998 0 011.414 0 .998.998 0 010 1.414.998.998 0 01-1.414 0 .998.998 0 010-1.414z" fill="#fff"/></mask><g mask="url(#b)"><path fill="#3E4056" d="M2 2h16v16H2z"/></g></svg>