<svg width="50" height="23" fill="none" xmlns="http://www.w3.org/2000/svg"><path fill-rule="evenodd" clip-rule="evenodd" d="M5.071 1.088c1.66 0 2.964.788 3.911 2.365.134.177.213.397.213.635a1.067 1.067 0 01-2.089.298c-.287-.456-.563-.76-.826-.913-.317-.202-.727-.303-1.228-.303-.615 0-1.126.174-1.532.52a1.61 1.61 0 00-.608 1.288c0 .713.532 1.287 1.598 1.722l1.465.596c1.193.48 2.065 1.065 2.617 1.756.552.69.828 1.537.828 2.54 0 1.344-.45 2.455-1.351 3.332-.908.883-2.033 1.325-3.378 1.325-1.275 0-2.328-.376-3.16-1.127-.817-.75-1.328-1.807-1.531-3.17l.02-.004a1.136 1.136 0 011.122-1.35c.63 0 1.142.51 1.142 1.136v.011c.105.706.27 1.204.494 1.494.457.631 1.123.946 1.998.946.692 0 1.266-.23 1.723-.69.456-.46.685-1.044.685-1.751 0-.284-.04-.544-.12-.78a1.978 1.978 0 00-.37-.654 2.962 2.962 0 00-.652-.558 6.29 6.29 0 00-.952-.497l-1.417-.587C1.662 7.823.657 6.586.657 4.958c0-1.097.421-2.015 1.265-2.753.844-.745 1.893-1.117 3.15-1.117zm7.671 21.382c.54 0 .996-.364 1.131-.86l.617-1.47 6.937-13.374h-2.416l-2.646 5.3-2.835-5.3h-2.483l4.167 7.505-3.39 6.307a1.16 1.16 0 00-.2.372l-.026.05h.012a1.17 1.17 0 001.132 1.47zM23.796 6.766h2.15v.852c.75-.738 1.593-1.107 2.532-1.107 1.078 0 1.918.337 2.521 1.012.52.574.78 1.511.78 2.81v5.65h-2.15v-5.148c0-.908-.127-1.536-.38-1.883-.248-.353-.698-.53-1.352-.53-.71 0-1.214.234-1.513.7-.291.461-.437 1.266-.437 2.414v4.447h-2.15V6.766zm13.806 1.988v7.23h-2.14v-7.23h-.914V6.766h.913V3.388h2.141v3.378h1.665v1.988h-1.665zM42.027 0h2.14v7.533C44.93 6.85 45.77 6.51 46.69 6.51c1.047 0 1.884.337 2.512 1.012.533.587.799 1.524.799 2.81v5.65h-2.14v-5.45c0-.738-.132-1.273-.396-1.604-.263-.332-.686-.497-1.27-.497-.748 0-1.275.23-1.58.69-.297.467-.447 1.269-.447 2.404v4.457h-2.14V0z" fill="#3E4056"/></svg>