<svg width="20" height="20" fill="none" xmlns="http://www.w3.org/2000/svg"><path opacity=".01" fill="#ECF1F8" d="M0 0h20v20H0z"/><mask id="a" maskUnits="userSpaceOnUse" x="0" y="0" width="20" height="20"><path fill="#fff" d="M0 0h20v20H0z"/></mask><g mask="url(#a)"><path opacity=".01" fill="#C3CADF" d="M0 0h20v20H0z"/><path d="M4 17a2 2 0 01-2-2V3a2 2 0 012-2h10a2 2 0 012 2v1" stroke="#3E4056" stroke-width="2"/><rect x="5" y="4" width="8" height="2" rx="1" fill="#3E4056"/><path fill-rule="evenodd" clip-rule="evenodd" d="M5 9a1 1 0 011-1h4l-2 2H6a1 1 0 01-1-1zm8.893-2.072a2 2 0 012.829 0l2.828 2.828a2 2 0 010 2.829l-6.944 6.943a.5.5 0 01-.306.144l-3.715.35a2 2 0 01-2.176-2.206l.394-3.642a.5.5 0 01.144-.3l6.946-6.946zm.707 2.121a1 1 0 011.415 0l1.414 1.414a1 1 0 010 1.414l-.707.707-2.829-2.828.707-.707zm-2.12 2.121l-3.536 3.535-.413 2.065a1 1 0 001.177 1.177l2.065-.413 3.534-3.535-2.828-2.829z" fill="#3E4056"/></g></svg>