<svg width="109" height="22" viewBox="0 0 109 22" fill="none" xmlns="http://www.w3.org/2000/svg">
<path fill-rule="evenodd" clip-rule="evenodd" d="M10.8963 5.41421C11.6774 4.63316 12.9437 4.63316 13.7248 5.41421L16.5532 8.24264C17.3342 9.02369 17.3342 10.29 16.5532 11.0711L9.60476 18.0195C9.52246 18.1018 9.41404 18.1528 9.29817 18.1637L5.58247 18.5143C4.32207 18.6332 3.26968 17.566 3.40628 16.3074L3.80158 12.665C3.81388 12.5517 3.86452 12.446 3.94511 12.3654L10.8963 5.41421ZM11.6027 7.53631C11.9932 7.14579 12.6263 7.14579 13.0169 7.53631L14.4311 8.95053C14.8216 9.34105 14.8216 9.97422 14.4311 10.3647L13.7232 11.0726L10.8948 8.2442L11.6027 7.53631ZM9.47978 9.6592L5.9428 13.1962L5.52896 15.2615C5.3887 15.9614 6.00596 16.5787 6.70594 16.4384L8.77123 16.0246L12.3082 12.4876L9.47978 9.6592Z" fill="#F05D63"/>
<path d="M35.9375 16H29.5703V4.57812H35.9375V5.75781H30.8984V9.4375H35.6328V10.6094H30.8984V14.8125H35.9375V16ZM44.1094 14.8516H44.0391C43.4401 15.7214 42.5443 16.1562 41.3516 16.1562C40.2318 16.1562 39.3594 15.7734 38.7344 15.0078C38.1146 14.2422 37.8047 13.1536 37.8047 11.7422C37.8047 10.3307 38.1172 9.23438 38.7422 8.45312C39.3672 7.67188 40.237 7.28125 41.3516 7.28125C42.513 7.28125 43.4036 7.70312 44.0234 8.54688H44.125L44.0703 7.92969L44.0391 7.32812V3.84375H45.3359V16H44.2812L44.1094 14.8516ZM41.5156 15.0703C42.401 15.0703 43.0417 14.8307 43.4375 14.3516C43.8385 13.8672 44.0391 13.0885 44.0391 12.0156V11.7422C44.0391 10.5286 43.8359 9.66406 43.4297 9.14844C43.0286 8.6276 42.3854 8.36719 41.5 8.36719C40.7396 8.36719 40.1562 8.66406 39.75 9.25781C39.349 9.84635 39.1484 10.6797 39.1484 11.7578C39.1484 12.8516 39.349 13.6771 39.75 14.2344C40.151 14.7917 40.7396 15.0703 41.5156 15.0703ZM49.3906 16H48.0938V7.4375H49.3906V16ZM47.9844 5.11719C47.9844 4.82031 48.0573 4.60417 48.2031 4.46875C48.349 4.32812 48.5312 4.25781 48.75 4.25781C48.9583 4.25781 49.138 4.32812 49.2891 4.46875C49.4401 4.60938 49.5156 4.82552 49.5156 5.11719C49.5156 5.40885 49.4401 5.6276 49.2891 5.77344C49.138 5.91406 48.9583 5.98438 48.75 5.98438C48.5312 5.98438 48.349 5.91406 48.2031 5.77344C48.0573 5.6276 47.9844 5.40885 47.9844 5.11719ZM54.9062 15.0859C55.1354 15.0859 55.3568 15.0703 55.5703 15.0391C55.7839 15.0026 55.9531 14.9661 56.0781 14.9297V15.9219C55.9375 15.9896 55.7292 16.0443 55.4531 16.0859C55.1823 16.1328 54.9375 16.1562 54.7188 16.1562C53.0625 16.1562 52.2344 15.2839 52.2344 13.5391V8.44531H51.0078V7.82031L52.2344 7.28125L52.7812 5.45312H53.5312V7.4375H56.0156V8.44531H53.5312V13.4844C53.5312 14 53.6536 14.3958 53.8984 14.6719C54.1432 14.9479 54.4792 15.0859 54.9062 15.0859ZM69.3906 7.90625C69.3906 9.0625 68.9948 9.95312 68.2031 10.5781C67.4167 11.1979 66.2891 11.5078 64.8203 11.5078H63.4766V16H62.1484V4.57812H65.1094C67.9635 4.57812 69.3906 5.6875 69.3906 7.90625ZM63.4766 10.3672H64.6719C65.849 10.3672 66.7005 10.1771 67.2266 9.79688C67.7526 9.41667 68.0156 8.80729 68.0156 7.96875C68.0156 7.21354 67.7682 6.65104 67.2734 6.28125C66.7786 5.91146 66.0078 5.72656 64.9609 5.72656H63.4766V10.3672ZM75.5 7.28125C75.8802 7.28125 76.2214 7.3125 76.5234 7.375L76.3438 8.57812C75.9896 8.5 75.6771 8.46094 75.4062 8.46094C74.7135 8.46094 74.1198 8.74219 73.625 9.30469C73.1354 9.86719 72.8906 10.5677 72.8906 11.4062V16H71.5938V7.4375H72.6641L72.8125 9.02344H72.875C73.1927 8.46615 73.5755 8.03646 74.0234 7.73438C74.4714 7.43229 74.9635 7.28125 75.5 7.28125ZM85.5156 11.7109C85.5156 13.1068 85.1641 14.1979 84.4609 14.9844C83.7578 15.7656 82.7865 16.1562 81.5469 16.1562C80.7812 16.1562 80.1016 15.9766 79.5078 15.6172C78.9141 15.2578 78.4557 14.7422 78.1328 14.0703C77.8099 13.3984 77.6484 12.612 77.6484 11.7109C77.6484 10.3151 77.9974 9.22917 78.6953 8.45312C79.3932 7.67188 80.362 7.28125 81.6016 7.28125C82.7995 7.28125 83.75 7.67969 84.4531 8.47656C85.1615 9.27344 85.5156 10.3516 85.5156 11.7109ZM78.9922 11.7109C78.9922 12.8047 79.2109 13.638 79.6484 14.2109C80.0859 14.7839 80.7292 15.0703 81.5781 15.0703C82.4271 15.0703 83.0703 14.7865 83.5078 14.2188C83.9505 13.6458 84.1719 12.8099 84.1719 11.7109C84.1719 10.6224 83.9505 9.79688 83.5078 9.23438C83.0703 8.66667 82.4219 8.38281 81.5625 8.38281C80.7135 8.38281 80.0729 8.66146 79.6406 9.21875C79.2083 9.77604 78.9922 10.6068 78.9922 11.7109ZM91.6562 8.44531H89.4766V16H88.1797V8.44531H86.6484V7.85938L88.1797 7.39062V6.91406C88.1797 4.8099 89.099 3.75781 90.9375 3.75781C91.3906 3.75781 91.9219 3.84896 92.5312 4.03125L92.1953 5.07031C91.6953 4.90885 91.2682 4.82812 90.9141 4.82812C90.4245 4.82812 90.0625 4.99219 89.8281 5.32031C89.5938 5.64323 89.4766 6.16406 89.4766 6.88281V7.4375H91.6562V8.44531ZM94.5156 16H93.2188V7.4375H94.5156V16ZM93.1094 5.11719C93.1094 4.82031 93.1823 4.60417 93.3281 4.46875C93.474 4.32812 93.6562 4.25781 93.875 4.25781C94.0833 4.25781 94.263 4.32812 94.4141 4.46875C94.5651 4.60938 94.6406 4.82552 94.6406 5.11719C94.6406 5.40885 94.5651 5.6276 94.4141 5.77344C94.263 5.91406 94.0833 5.98438 93.875 5.98438C93.6562 5.98438 93.474 5.91406 93.3281 5.77344C93.1823 5.6276 93.1094 5.40885 93.1094 5.11719ZM98.5625 16H97.2656V3.84375H98.5625V16ZM104.93 16.1562C103.664 16.1562 102.664 15.7708 101.93 15C101.201 14.2292 100.836 13.1589 100.836 11.7891C100.836 10.4089 101.174 9.3125 101.852 8.5C102.534 7.6875 103.448 7.28125 104.594 7.28125C105.667 7.28125 106.516 7.63542 107.141 8.34375C107.766 9.04688 108.078 9.97656 108.078 11.1328V11.9531H102.18C102.206 12.9583 102.458 13.7214 102.938 14.2422C103.422 14.763 104.102 15.0234 104.977 15.0234C105.898 15.0234 106.81 14.8307 107.711 14.4453V15.6016C107.253 15.7995 106.818 15.9401 106.406 16.0234C106 16.112 105.508 16.1562 104.93 16.1562ZM104.578 8.36719C103.891 8.36719 103.341 8.59115 102.93 9.03906C102.523 9.48698 102.284 10.1068 102.211 10.8984H106.688C106.688 10.0807 106.505 9.45573 106.141 9.02344C105.776 8.58594 105.255 8.36719 104.578 8.36719Z" fill="#F05D63"/>
<path d="M28 17.6016H108.914V18.3984H28V17.6016Z" fill="#F05D63"/>
</svg>
