<svg width="15" height="15" viewBox="0 0 15 15" fill="none" xmlns="http://www.w3.org/2000/svg">
<path fill-rule="evenodd" clip-rule="evenodd" d="M7.89633 1.41421C8.67738 0.633165 9.94371 0.633165 10.7248 1.41421L13.5532 4.24264C14.3342 5.02369 14.3342 6.29002 13.5532 7.07107L6.60476 14.0195C6.52246 14.1018 6.41404 14.1528 6.29817 14.1637L2.58247 14.5143C1.32207 14.6332 0.269682 13.566 0.406279 12.3074L0.801581 8.66504C0.813878 8.55174 0.864518 8.44603 0.945108 8.36544L7.89633 1.41421ZM8.60266 3.53631C8.99318 3.14579 9.62635 3.14579 10.0169 3.53631L11.4311 4.95053C11.8216 5.34105 11.8216 5.97422 11.4311 6.36474L10.7232 7.07263L7.89477 4.2442L8.60266 3.53631ZM6.47978 5.6592L2.9428 9.19617L2.52896 11.2615C2.3887 11.9614 3.00596 12.5787 3.70594 12.4384L5.77123 12.0246L9.30821 8.48762L6.47978 5.6592Z" fill="#F05D63"/>
</svg>
