<svg width="16" height="14" viewBox="0 0 16 14" fill="none" xmlns="http://www.w3.org/2000/svg">
<path fill-rule="evenodd" clip-rule="evenodd" d="M8 8.09328C7.17963 9.25452 5.90782 10 4.48 10C2.00576 10 0 7.76142 0 5C0 2.23858 2.00576 0 4.48 0C5.90782 0 7.17963 0.74548 8 1.90672C8.82038 0.74548 10.0922 0 11.52 0C13.9942 0 16 2.23858 16 5C16 7.76142 13.9942 10 11.52 10C10.0922 10 8.82038 9.25452 8 8.09328Z" fill="#FB5F8A"/>
<mask id="mask0" mask-type="alpha" maskUnits="userSpaceOnUse" x="0" y="0" width="16" height="10">
<path fill-rule="evenodd" clip-rule="evenodd" d="M8 8.09328C7.17963 9.25452 5.90782 10 4.48 10C2.00576 10 0 7.76142 0 5C0 2.23858 2.00576 0 4.48 0C5.90782 0 7.17963 0.74548 8 1.90672C8.82038 0.74548 10.0922 0 11.52 0C13.9942 0 16 2.23858 16 5C16 7.76142 13.9942 10 11.52 10C10.0922 10 8.82038 9.25452 8 8.09328Z" fill="white"/>
</mask>
<g mask="url(#mask0)">
<rect width="16" height="16" fill="#FC719F"/>
<rect width="16" height="16" fill="#ED5267"/>
</g>
<path fill-rule="evenodd" clip-rule="evenodd" d="M8 14C10.7614 14 16 9 16 5C16 5 0 5 0 5C0 9 5.23858 14 8 14Z" fill="#FB5F8A"/>
<mask id="mask1" mask-type="alpha" maskUnits="userSpaceOnUse" x="0" y="5" width="16" height="9">
<path fill-rule="evenodd" clip-rule="evenodd" d="M8 14C10.7614 14 16 9 16 5C16 5 0 5 0 5C0 9 5.23858 14 8 14Z" fill="white"/>
</mask>
<g mask="url(#mask1)">
<rect width="16" height="16" fill="#FC719F"/>
<rect width="16" height="16" fill="#ED5267"/>
</g>
</svg>
