<svg width="16" height="13" viewBox="0 0 16 13" fill="none" xmlns="http://www.w3.org/2000/svg">
<path d="M1.89729 2.65197C1.91717 2.45096 1.84227 2.25228 1.69561 2.11699L0.201681 0.275132V0H4.84034L8.42577 8.04762L11.578 0H16V0.275132L14.7227 1.52851C14.6126 1.61442 14.5579 1.75561 14.5808 1.89536V11.1046C14.5579 11.2444 14.6126 11.3856 14.7227 11.4715L15.9701 12.7249V13H9.69561V12.7249L10.9879 11.4409C11.1148 11.311 11.1148 11.2728 11.1148 11.0741V3.63022L7.52194 12.9694H7.03641L2.85341 3.63022V9.88948C2.81853 10.1526 2.90393 10.4176 3.08497 10.6079L4.76564 12.6943V12.9694H0V12.6943L1.68067 10.6079C1.86039 10.4173 1.94081 10.1506 1.89729 9.88948V2.65197Z" fill="#3E3F58"/>
</svg>
